<?xml version="1.0" encoding="UTF-8"?>
<svg xmlns="http://www.w3.org/2000/svg" xmlns:xlink="http://www.w3.org/1999/xlink" viewBox="0 0 250 250" width="250px" height="250px">
<g id="surface1140523">
<path style=" stroke:none;fill-rule:nonzero;fill:rgb(100%,100%,100%);fill-opacity:1;" d="M 233.964844 110.449219 L 139.550781 16.035156 C 135.546875 12.011719 130.273438 10 125 10 C 119.726562 10 114.453125 12.011719 110.449219 16.035156 L 91.777344 34.707031 L 114.882812 57.8125 C 122.558594 53.300781 132.558594 54.277344 139.140625 60.859375 C 145.722656 67.441406 146.679688 77.441406 142.167969 85.097656 L 164.882812 107.8125 C 172.558594 103.300781 182.558594 104.277344 189.140625 110.859375 C 196.953125 118.671875 196.953125 131.328125 189.140625 139.140625 C 181.328125 146.953125 168.671875 146.953125 160.859375 139.140625 C 154.277344 132.558594 153.300781 122.558594 157.8125 114.882812 L 135.097656 92.167969 C 133.476562 93.125 131.777344 93.828125 130 94.277344 L 130 155.703125 C 138.613281 157.929688 145 165.683594 145 175 C 145 186.054688 136.054688 195 125 195 C 113.945312 195 105 186.054688 105 175 C 105 165.683594 111.386719 157.929688 120 155.703125 L 120 94.277344 C 116.660156 93.417969 113.476562 91.757812 110.859375 89.140625 C 104.277344 82.558594 103.320312 72.558594 107.832031 64.902344 L 84.707031 41.777344 L 16.035156 110.449219 C 7.988281 118.476562 7.988281 131.523438 16.035156 139.550781 L 110.449219 233.964844 C 114.453125 237.988281 119.726562 240 125 240 C 130.273438 240 135.546875 237.988281 139.550781 233.964844 L 233.964844 139.550781 C 242.011719 131.523438 242.011719 118.476562 233.964844 110.449219 Z M 233.964844 110.449219 "/>
</g>
</svg>
