<?xml version="1.0" encoding="UTF-8"?>
<svg xmlns="http://www.w3.org/2000/svg" xmlns:xlink="http://www.w3.org/1999/xlink" viewBox="0 0 240 240" width="240px" height="240px">
<g id="surface1143546">
<path style=" stroke:none;fill-rule:nonzero;fill:rgb(100%,100%,100%);fill-opacity:1;" d="M 120 15.351562 C 116.054688 15.351562 112.113281 16.386719 108.605469 18.457031 L 41.105469 58.183594 C 34.25 62.203125 30 69.644531 30 77.578125 L 30 165.085938 C 30 173.324219 34.488281 180.890625 41.71875 184.835938 L 63.839844 196.90625 C 67.242188 198.765625 70.929688 199.660156 74.617188 199.660156 C 78.578125 199.660156 82.488281 198.59375 86.074219 196.496094 C 92.972656 192.398438 97.089844 185.167969 97.089844 177.128906 L 97.089844 81.972656 L 82.089844 81.972656 L 82.089844 177.128906 C 82.089844 180.984375 79.539062 182.929688 78.425781 183.574219 C 77.332031 184.21875 74.390625 185.566406 71.015625 183.722656 L 48.925781 171.679688 C 46.511719 170.359375 45 167.832031 45 165.089844 L 45 77.578125 C 45 74.9375 46.410156 72.453125 48.691406 71.105469 L 116.191406 31.378906 C 118.53125 29.996094 121.46875 30.011719 123.808594 31.378906 L 191.308594 71.105469 C 193.574219 72.453125 195 74.9375 195 77.578125 L 195 165.148438 C 195 167.847656 193.503906 170.386719 191.105469 171.738281 L 123.605469 208.507812 C 121.355469 209.707031 118.644531 209.707031 116.394531 208.507812 L 103.214844 201.300781 C 100.664062 204.449219 97.5 207.164062 93.75 209.414062 C 92.550781 210.164062 91.347656 210.75 90.144531 211.203125 L 109.1875 221.691406 C 112.640625 223.488281 116.25 224.414062 120 224.414062 C 123.75 224.414062 127.359375 223.488281 130.8125 221.691406 L 198.3125 184.804688 C 205.511719 180.90625 210 173.398438 210 165.148438 L 210 77.578125 C 210 69.644531 205.765625 62.203125 198.925781 58.183594 L 131.425781 18.457031 C 127.910156 16.386719 123.945312 15.351562 120 15.351562 Z M 141.769531 79.773438 C 118.066406 79.773438 106.054688 88.035156 106.054688 104.328125 C 106.054688 122.777344 127.304688 125.519531 137.519531 126.828125 C 138.988281 127.019531 140.292969 127.1875 141.328125 127.382812 L 145.8125 128.171875 C 161.410156 130.785156 165 132.554688 165 137.578125 C 165 140.007812 164.988281 147.363281 141.769531 147.363281 C 122.074219 147.363281 118.035156 141.519531 118.035156 132.746094 L 103.035156 132.746094 C 103.035156 146.273438 109.757812 162.363281 141.769531 162.363281 C 173.359375 162.363281 180 148.886719 180 137.578125 C 180 118.707031 161.664062 115.613281 148.300781 113.351562 L 143.992188 112.617188 C 142.75 112.390625 141.179688 112.183594 139.421875 111.972656 C 129.882812 110.742188 121.054688 108.976562 121.054688 104.355469 C 121.054688 101.011719 121.039062 94.789062 141.769531 94.777344 C 155.550781 94.777344 162.570312 99.3125 162.570312 108.253906 L 177.570312 108.253906 C 177.570312 94.496094 168.136719 79.777344 141.769531 79.777344 Z M 141.769531 79.773438 "/>
</g>
</svg>
